<svg width="634" height="332" viewBox="0 0 634 332" fill="none" xmlns="http://www.w3.org/2000/svg">
<g clip-path="url(#clip0_13_30)">
<path d="M583.288 329.12C581.886 327.962 580.788 326.48 580.089 324.802C579.39 323.125 579.111 321.302 579.277 319.492C579.718 315.896 582.451 312.591 585.996 311.827C589.541 311.063 593.583 313.177 594.659 316.637C595.252 309.967 595.935 303.018 599.485 297.338C601.093 294.757 603.257 292.566 605.82 290.926C608.383 289.286 611.28 288.237 614.299 287.857C617.327 287.531 620.388 287.962 623.207 289.112C626.026 290.261 628.514 292.093 630.448 294.442C632.325 296.839 633.508 299.703 633.869 302.724C634.231 305.744 633.756 308.806 632.497 311.577C630.556 315.6 626.979 318.594 623.231 321.03C611.122 328.835 596.598 332.009 582.332 329.968" fill="#F2F2F2"/>
<path d="M624.482 289.823C619.503 293.874 614.936 298.404 610.847 303.349C604.446 311.06 599.267 319.706 595.489 328.985C595.212 329.662 596.313 329.957 596.586 329.287C602.767 314.207 612.635 300.915 625.286 290.627C625.855 290.165 625.045 289.365 624.482 289.823Z" fill="white"/>
<path d="M458.749 163.889L462.953 153.95C463.406 152.879 464.267 152.031 465.346 151.594C466.425 151.156 467.634 151.165 468.707 151.617L546.655 184.518C549.047 185.528 550.939 187.445 551.916 189.849C552.893 192.253 552.874 194.945 551.863 197.335C550.852 199.724 548.933 201.615 546.526 202.59C544.12 203.566 541.425 203.547 539.033 202.537L461.085 169.636C460.012 169.184 459.163 168.324 458.725 167.246C458.287 166.168 458.296 164.961 458.749 163.889Z" fill="#6C63FF"/>
<path d="M500.084 154.889C498.727 152.783 495.465 152.73 493.374 154.113C491.284 155.495 490.085 157.846 488.977 160.092C487.008 164.083 485.014 168.147 484.292 172.537C483.569 176.927 484.292 181.772 487.237 185.11C490.039 188.287 494.33 189.624 498.395 190.822L536.531 202.061C540.565 203.25 544.981 204.426 548.87 202.826C551.386 201.668 553.45 199.716 554.743 197.269C556.731 193.618 557.499 189.429 556.935 185.312C556.371 181.194 554.505 177.365 551.609 174.382C544.753 167.627 534.169 167.077 524.772 164.974C515.465 162.885 506.674 158.944 498.925 153.386" fill="#2F2E41"/>
<path d="M570.291 331.844H559.49C558.229 331.843 557.02 331.342 556.128 330.451C555.236 329.56 554.735 328.352 554.733 327.093V237.169C554.735 235.909 555.236 234.701 556.128 233.81C557.02 232.92 558.229 232.418 559.49 232.417H570.291C571.552 232.418 572.761 232.92 573.653 233.81C574.545 234.701 575.046 235.909 575.048 237.169V327.093C575.046 328.352 574.545 329.56 573.653 330.451C572.761 331.342 571.552 331.843 570.291 331.844Z" fill="#6C63FF"/>
<path d="M548.928 331.844H538.127C536.866 331.843 535.657 331.342 534.765 330.451C533.873 329.56 533.372 328.352 533.37 327.093V237.169C533.372 235.909 533.873 234.701 534.765 233.81C535.657 232.92 536.866 232.418 538.127 232.417H548.928C550.189 232.418 551.398 232.92 552.29 233.81C553.182 234.701 553.683 235.909 553.685 237.169V327.093C553.683 328.352 553.182 329.56 552.29 330.451C551.398 331.342 550.189 331.843 548.928 331.844Z" fill="#6C63FF"/>
<path d="M553.887 138.571C574.499 138.571 591.208 121.879 591.208 101.289C591.208 80.6993 574.499 64.0078 553.887 64.0078C533.274 64.0078 516.565 80.6993 516.565 101.289C516.565 121.879 533.274 138.571 553.887 138.571Z" fill="#6C63FF"/>
<path d="M521.66 110.36C519.241 110.293 516.23 110.209 513.91 108.517C513.219 107.992 512.652 107.323 512.247 106.556C511.843 105.789 511.611 104.943 511.568 104.078C511.526 103.462 511.627 102.846 511.864 102.276C512.1 101.706 512.465 101.199 512.93 100.793C514.141 99.7704 515.91 99.5305 517.817 100.09L515.842 85.6706L517.292 85.4722L519.614 102.424L518.403 101.869C516.999 101.226 515.072 100.899 513.874 101.91C513.58 102.174 513.351 102.502 513.205 102.869C513.059 103.236 512.999 103.632 513.031 104.026C513.066 104.671 513.24 105.3 513.541 105.871C513.842 106.442 514.262 106.942 514.774 107.336C516.579 108.653 518.979 108.823 521.701 108.899L521.66 110.36Z" fill="#2F2E41"/>
<path d="M533.552 86.9143H525.669V88.3763H533.552V86.9143Z" fill="#2F2E41"/>
<path d="M547.92 96.93C549.622 96.2245 551.101 95.0733 552.202 93.5979C553.302 92.1225 553.984 90.3776 554.175 88.5474C554.319 86.6691 553.985 84.7849 553.203 83.0705C552.422 81.3561 551.218 79.8674 549.705 78.7433C543.338 73.9439 534.56 76.9811 527.894 73.0248C526.349 72.1101 525.146 70.7143 524.471 69.0514C523.795 67.3885 523.684 65.5502 524.155 63.8182C525.071 59.8842 528.052 57.0119 531.445 55.0403C538.153 51.1419 546.319 49.688 554.003 49.9717C569.803 50.5551 584.359 58.7502 593.798 71.2892C598.406 77.4479 601.882 84.3755 604.064 91.7489C606.321 99.3186 607.572 107.607 606.141 115.452C605.563 119.136 604.197 122.652 602.135 125.761C600.073 128.87 597.365 131.498 594.194 133.467C588.134 137.409 581.026 139.431 574.011 140.896C572.262 141.261 570.505 141.588 568.744 141.896C567.355 142.14 567.944 144.253 569.328 144.011C583.46 141.535 600.101 137.159 606.285 122.644C609.613 114.832 609.375 105.988 607.801 97.7922C606.318 90.0456 603.503 82.6144 599.479 75.8285C591.267 62.0403 577.898 51.7201 561.977 48.69C554.035 47.1139 545.827 47.5101 538.074 49.8438C530.752 52.1262 522.437 56.6727 521.734 65.2022C521.565 67.0912 521.928 68.9897 522.782 70.6833C523.637 72.377 524.948 73.7982 526.569 74.7864C529.744 76.758 533.572 77.2396 537.22 77.5584C541.152 77.9019 545.659 78.1371 548.812 80.8202C551.749 83.3193 552.981 87.6496 551.162 91.1605C550.352 92.7868 548.999 94.0795 547.337 94.8153C547.061 94.901 546.829 95.088 546.687 95.3384C546.544 95.5889 546.503 95.8841 546.57 96.1641C546.649 96.4437 546.835 96.681 547.088 96.8244C547.34 96.9678 547.64 97.0057 547.92 96.93Z" fill="#2F2E41"/>
<path d="M585.768 159.082L585.615 158.807C585.243 158.138 584.702 157.577 584.045 157.182C583.389 156.786 582.64 156.569 581.873 156.552L562.614 156.131V153.586C562.614 153.011 562.501 152.44 562.28 151.908C562.06 151.376 561.736 150.892 561.328 150.485C560.921 150.078 560.437 149.755 559.904 149.534C559.371 149.314 558.8 149.2 558.224 149.2H546.515C545.35 149.2 544.234 149.663 543.41 150.485C542.587 151.308 542.124 152.423 542.124 153.586V155.682L524.666 155.3C523.893 155.283 523.13 155.47 522.453 155.842C521.776 156.215 521.209 156.759 520.81 157.419C511.478 172.872 506.394 190.511 506.071 208.554C505.748 226.598 510.198 244.407 518.971 260.182L519.124 260.457C519.496 261.126 520.037 261.687 520.694 262.082C521.35 262.478 522.099 262.695 522.866 262.712L580.073 263.964C580.846 263.981 581.609 263.794 582.286 263.422C582.963 263.05 583.53 262.506 583.929 261.845C593.261 246.392 598.345 228.753 598.668 210.71C598.991 192.666 594.541 174.857 585.768 159.082Z" fill="#2F2E41"/>
<path d="M537.646 262.512L527.1 260.184C525.963 259.933 524.972 259.241 524.346 258.26C523.719 257.279 523.509 256.09 523.76 254.954L542.019 172.416C542.579 169.883 544.124 167.676 546.313 166.281C548.502 164.886 551.157 164.416 553.692 164.976C556.228 165.536 558.437 167.079 559.834 169.266C561.231 171.452 561.701 174.104 561.14 176.637L542.881 259.175C542.63 260.311 541.937 261.301 540.956 261.926C539.974 262.552 538.784 262.763 537.646 262.512Z" fill="#6C63FF"/>
<path d="M525.551 221.274C523.681 222.942 524.14 226.169 525.834 228.015C527.528 229.861 530.041 230.675 532.436 231.417C536.69 232.735 541.02 234.065 545.473 234.09C549.927 234.115 554.604 232.643 557.443 229.215C560.145 225.953 560.796 221.51 561.344 217.311L566.483 177.927C567.026 173.76 567.497 169.219 565.305 165.633C563.767 163.332 561.513 161.602 558.891 160.709C554.971 159.32 550.708 159.218 546.726 160.419C542.743 161.62 539.249 164.061 536.753 167.386C531.149 175.208 532.263 185.737 531.656 195.336C531.048 204.847 528.528 214.137 524.247 222.653" fill="#2F2E41"/>
<path d="M453.536 195.517H12.5276C9.20625 195.514 6.02197 194.194 3.6734 191.848C1.32483 189.502 0.0037517 186.321 0 183.003V12.5142C0.0037517 9.19643 1.32483 6.01557 3.6734 3.66951C6.02197 1.32345 9.20624 0.00377673 12.5276 0H453.536C456.858 0.00376509 460.042 1.32343 462.391 3.66949C464.739 6.01555 466.06 9.19641 466.064 12.5142V183.003C466.06 186.321 464.739 189.502 462.391 191.848C460.042 194.194 456.858 195.514 453.536 195.517Z" fill="#3F3D56"/>
<path d="M453.536 2.55859H12.5276C9.88542 2.56211 7.35251 3.61212 5.48423 5.47839C3.61594 7.34466 2.5648 9.87485 2.56128 12.5142V183.003C2.5648 185.643 3.61594 188.173 5.48423 190.039C7.35251 191.905 9.88542 192.955 12.5276 192.959H453.536C456.179 192.955 458.712 191.905 460.58 190.039C462.448 188.173 463.499 185.643 463.503 183.003V12.5142C463.499 9.87485 462.448 7.34466 460.58 5.47839C458.712 3.61212 456.179 2.56211 453.536 2.55859Z" fill="white"/>
<path d="M463.503 30.3034V183.003C463.499 185.642 462.448 188.173 460.58 190.039C458.711 191.905 456.179 192.955 453.536 192.959H12.5276C9.88542 192.955 7.35251 191.905 5.48423 190.039C3.61594 188.173 2.5648 185.642 2.56128 183.003V166.452C4.28032 159.396 11.1136 153.255 18.5634 151.519C28.561 149.192 38.9197 152.446 48.6864 155.619C58.4474 158.792 68.8621 161.953 78.8159 159.44C107.706 152.166 111.007 105.412 139.766 97.6652C156.609 93.1292 173.166 104.671 186.788 115.56C200.411 126.443 216.912 138.029 233.78 133.58C246.132 130.32 254.565 119.35 262.937 109.711C271.309 100.073 282.297 90.4723 295.022 91.5861C308.346 92.7497 318.038 105.238 330.995 108.548C348.031 112.891 364.874 100.167 374.934 85.7621C384.987 71.3576 391.671 54.2838 404.714 42.5176C420.293 28.4616 443.066 24.946 463.503 30.3034Z" fill="#CCCCCC"/>
<path d="M632.903 332H494.379C494.264 332 494.15 331.978 494.044 331.935C493.938 331.891 493.842 331.827 493.761 331.746C493.68 331.665 493.615 331.569 493.571 331.463C493.527 331.358 493.505 331.244 493.505 331.13C493.505 331.015 493.527 330.902 493.571 330.796C493.615 330.69 493.68 330.594 493.761 330.513C493.842 330.432 493.938 330.368 494.044 330.325C494.15 330.281 494.264 330.259 494.379 330.259H632.903C633.134 330.259 633.356 330.351 633.52 330.514C633.683 330.677 633.775 330.899 633.775 331.13C633.775 331.361 633.683 331.582 633.52 331.745C633.356 331.908 633.134 332 632.903 332Z" fill="#3F3D56"/>
</g>
<defs>
<clipPath id="clip0_13_30">
<rect width="634" height="332" fill="white"/>
</clipPath>
</defs>
</svg>
