<svg width="891" height="493" viewBox="0 0 891 493" fill="none" xmlns="http://www.w3.org/2000/svg">
<g id="hero-img" clip-path="url(#clip0_128_2)">
<path id="Path 765" d="M695.999 74.0681H477.515V68.8583H378.446V74.0681H159.062C155.142 74.0681 151.382 75.8698 148.61 79.0768C145.839 82.2838 144.281 86.6334 144.281 91.1687V437.31C144.281 441.846 145.839 446.195 148.61 449.402C151.382 452.609 155.142 454.411 159.062 454.411H695.999C699.919 454.411 703.678 452.609 706.45 449.402C709.221 446.195 710.779 441.846 710.779 437.31V91.1668C710.778 86.6318 709.221 82.2827 706.449 79.0761C703.677 75.8696 699.918 74.0681 695.999 74.0681Z" fill="#3F3D56"/>
<path id="Rectangle 125" d="M690.963 104.287H164.097V448.158H690.963V104.287Z" fill="#E6E6E6"/>
<path id="Rectangle 130" d="M668.799 122.472H186.441V419.704H668.799V122.472Z" fill="white"/>
<path id="Ellipse 120" d="M427.079 94.9096C430.064 94.9096 432.483 92.1103 432.483 88.6572C432.483 85.2041 430.064 82.4048 427.079 82.4048C424.095 82.4048 421.676 85.2041 421.676 88.6572C421.676 92.1103 424.095 94.9096 427.079 94.9096Z" fill="#6C63FF"/>
<path id="Path 766" d="M725.57 441.905H674.152V437.618C674.152 437.393 674.074 437.177 673.937 437.017C673.799 436.858 673.612 436.768 673.417 436.768H655.788C655.593 436.768 655.406 436.858 655.268 437.017C655.13 437.177 655.053 437.393 655.053 437.618V441.905H644.035V437.618C644.035 437.393 643.958 437.177 643.82 437.017C643.682 436.858 643.495 436.768 643.3 436.768H625.671C625.476 436.768 625.289 436.858 625.151 437.017C625.013 437.177 624.936 437.393 624.936 437.618V441.905H613.918V437.618C613.918 437.393 613.841 437.177 613.703 437.017C613.565 436.858 613.378 436.768 613.183 436.768H595.554C595.359 436.768 595.172 436.858 595.034 437.017C594.897 437.177 594.819 437.393 594.819 437.618V441.905H583.801V437.618C583.801 437.393 583.724 437.177 583.586 437.017C583.448 436.858 583.262 436.768 583.067 436.768H565.438C565.243 436.768 565.056 436.858 564.919 437.017C564.781 437.177 564.703 437.393 564.703 437.618V441.905H553.685V437.618C553.685 437.393 553.607 437.177 553.469 437.017C553.332 436.858 553.145 436.768 552.95 436.768H535.321C535.126 436.768 534.939 436.858 534.802 437.017C534.664 437.177 534.586 437.393 534.586 437.618V441.905H523.568V437.618C523.568 437.393 523.49 437.177 523.353 437.017C523.215 436.858 523.028 436.768 522.833 436.768H505.208C505.013 436.768 504.826 436.858 504.688 437.017C504.55 437.177 504.473 437.393 504.473 437.618V441.905H493.451V437.618C493.451 437.393 493.374 437.177 493.236 437.017C493.098 436.858 492.911 436.768 492.716 436.768H354.62C354.426 436.768 354.239 436.858 354.101 437.017C353.963 437.177 353.886 437.393 353.886 437.618V441.905H342.868V437.618C342.868 437.393 342.79 437.177 342.653 437.017C342.515 436.858 342.328 436.768 342.133 436.768H324.504C324.309 436.768 324.122 436.858 323.984 437.017C323.846 437.177 323.769 437.393 323.769 437.618V441.905H312.751V437.618C312.751 437.393 312.674 437.177 312.536 437.017C312.398 436.858 312.211 436.768 312.016 436.768H294.388C294.193 436.768 294.006 436.858 293.868 437.017C293.73 437.177 293.653 437.393 293.653 437.618V441.905H282.634V437.618C282.634 437.393 282.557 437.177 282.419 437.017C282.281 436.858 282.094 436.768 281.899 436.768H264.271C264.076 436.768 263.889 436.858 263.751 437.017C263.613 437.177 263.536 437.393 263.536 437.618V441.905H252.52V437.618C252.52 437.393 252.442 437.177 252.305 437.017C252.167 436.858 251.98 436.768 251.785 436.768H234.154C233.959 436.768 233.772 436.858 233.634 437.017C233.497 437.177 233.419 437.393 233.419 437.618V441.905H222.401V437.618C222.401 437.393 222.324 437.177 222.186 437.017C222.048 436.858 221.861 436.768 221.667 436.768H204.037C203.842 436.768 203.655 436.858 203.518 437.017C203.38 437.177 203.302 437.393 203.302 437.618V441.905H192.285V437.618C192.285 437.393 192.207 437.177 192.069 437.017C191.932 436.858 191.745 436.768 191.55 436.768H173.917C173.722 436.768 173.535 436.858 173.397 437.017C173.26 437.177 173.182 437.393 173.182 437.618V441.905H139.396C134.721 441.905 130.237 444.054 126.931 447.879C123.624 451.705 121.767 456.893 121.767 462.302V471.525C121.767 476.935 123.624 482.123 126.931 485.948C130.237 489.774 134.721 491.923 139.396 491.923H725.57C730.246 491.923 734.73 489.774 738.036 485.949C741.342 482.124 743.2 476.936 743.2 471.526V462.304C743.2 456.894 741.342 451.706 738.036 447.88C734.73 444.055 730.246 441.906 725.57 441.906V441.905Z" fill="#3F3D56"/>
<path id="Rectangle 126" d="M534.272 143.319H320.969V402.743H534.272V143.319Z" fill="#E6E6E6"/>
<path id="Rectangle 128" d="M891 491.057H0V493H891V491.057Z" fill="#E6E6E6"/>
<path id="Path 779" d="M51.1901 423.174C63.2626 438.162 63.8866 460.193 63.8866 460.193C63.8866 460.193 44.9371 457.921 32.8645 442.933C20.7919 427.945 20.168 405.914 20.168 405.914C20.168 405.914 39.1175 408.186 51.1901 423.174Z" fill="#E5E5E5"/>
<path id="Path 780" d="M78.4182 491.056H30.7702C29.856 491.056 28.9601 490.759 28.185 490.198C27.41 489.637 26.787 488.835 26.3874 487.883L16.0137 463.211C15.6515 462.351 15.4842 461.399 15.5278 460.444C15.5713 459.489 15.8241 458.563 16.2625 457.752C16.7009 456.941 17.3104 456.273 18.0336 455.81C18.7568 455.347 19.57 455.105 20.3965 455.106H88.7927C89.6192 455.105 90.4324 455.347 91.1556 455.81C91.8788 456.273 92.4883 456.941 92.9267 457.752C93.3651 458.563 93.6179 459.489 93.6615 460.444C93.705 461.399 93.5378 462.351 93.1755 463.211L82.8018 487.884C82.4022 488.836 81.7792 489.638 81.0042 490.199C80.2291 490.76 79.3332 491.057 78.419 491.057L78.4182 491.056Z" fill="#E5E5E5"/>
<path id="Ellipse 127" d="M453.357 216.757C469.013 216.757 481.705 202.073 481.705 183.958C481.705 165.844 469.013 151.159 453.357 151.159C437.701 151.159 425.009 165.844 425.009 183.958C425.009 202.073 437.701 216.757 453.357 216.757Z" fill="#A0616A"/>
<path id="Path 803" d="M388.132 403.277L406.439 269.934C407.412 262.845 409.679 256.076 413.089 250.079C416.499 244.082 420.974 238.994 426.216 235.154C431.458 231.313 437.346 228.808 443.49 227.806C449.633 226.803 455.891 227.326 461.846 229.339C472.259 232.823 481.174 240.674 486.852 251.357C492.529 262.04 494.561 274.788 492.549 287.112L473.402 406.193L388.132 403.277Z" fill="#6C63FF"/>
<path id="Path 804" d="M461.183 427.135C462.599 426.054 463.793 424.626 464.68 422.952C465.568 421.279 466.127 419.401 466.319 417.451C466.511 415.5 466.331 413.525 465.792 411.663C465.253 409.802 464.368 408.1 463.199 406.677L482.123 364.276L460.811 366.907L446.108 406.769C444.18 409.202 443.089 412.367 443.041 415.667C442.993 418.967 443.991 422.173 445.846 424.68C447.702 427.187 450.286 428.821 453.112 429.274C455.937 429.726 458.808 428.966 461.183 427.136L461.183 427.135Z" fill="#A0616A"/>
<path id="Path 805" d="M465.236 399.198C464.19 399.027 463.213 398.491 462.436 397.661L455.195 389.92C454.413 389.08 453.873 387.982 453.648 386.775C453.422 385.568 453.523 384.31 453.936 383.171L468.407 343.485L466.353 265.07C466.953 259.983 469.275 255.38 472.808 252.273C476.341 249.167 480.796 247.812 485.193 248.505C489.59 249.199 493.569 251.886 496.253 255.974C498.938 260.062 500.11 265.216 499.51 270.303L503.02 319.597C504.087 334.557 500.421 349.457 492.705 361.524L470.137 396.823C469.703 397.501 469.15 398.066 468.515 398.481C467.88 398.896 467.176 399.152 466.45 399.231C466.046 399.276 465.638 399.265 465.236 399.198Z" fill="#6C63FF"/>
<path id="Path 806" d="M290.107 166.088C290.416 168.018 291.087 169.847 292.073 171.445C293.059 173.042 294.335 174.371 295.813 175.336C297.29 176.302 298.932 176.88 300.624 177.032C302.316 177.183 304.016 176.904 305.604 176.213L331.973 212.908L338.187 189.175L312.194 157.967C311.009 154.967 308.915 152.572 306.308 151.236C303.701 149.899 300.761 149.713 298.043 150.712C295.326 151.711 293.018 153.827 291.556 156.66C290.095 159.492 289.579 162.846 290.107 166.088Z" fill="#A0616A"/>
<path id="Path 807" d="M310.763 181.298C311.308 180.249 312.115 179.417 313.079 178.913L322.064 174.218C323.038 173.712 324.122 173.564 325.171 173.795C326.22 174.025 327.182 174.623 327.927 175.507L353.871 206.398L417.083 234.784C418.973 236.081 420.624 237.797 421.942 239.834C423.259 241.87 424.216 244.186 424.759 246.651C425.302 249.115 425.42 251.679 425.106 254.197C424.793 256.714 424.053 259.135 422.93 261.322C421.808 263.508 420.324 265.417 418.563 266.94C416.802 268.462 414.799 269.569 412.669 270.195C410.538 270.822 408.322 270.957 406.147 270.592C403.971 270.227 401.879 269.37 399.99 268.07L359.39 252.59C347.066 247.894 336.637 238.178 330.041 225.251L310.747 187.445C310.376 186.718 310.142 185.909 310.059 185.07C309.976 184.232 310.047 183.382 310.267 182.577C310.389 182.13 310.557 181.701 310.766 181.299L310.763 181.298Z" fill="#6C63FF"/>
<path id="Path 808" opacity="0.1" d="M476.351 297.69L475.197 340.423L453.935 383.174L471.688 335.535L476.351 297.69Z" fill="black"/>
<path id="Path 696" d="M434.159 167.518C437.083 171.522 442.031 172.651 446.596 173.115C455.866 174.055 469.346 172.532 478.406 170.109C479.052 177.361 477.29 185.178 480.98 191.143C482.711 183.922 483.717 176.494 483.979 169.007C484.091 165.8 484.047 162.473 482.919 159.526C481.792 156.578 479.332 154.076 476.499 154.049C478.604 152.202 481.069 150.983 483.677 150.499L474.708 145.284L477.012 142.548L460.774 141.399L465.477 137.942C458.398 136.818 451.237 136.557 444.112 137.165C440.803 137.446 437.343 137.986 434.663 140.204C431.982 142.422 430.433 146.83 432.097 150.087C430.013 150.483 428.052 151.488 426.397 153.006C424.743 154.525 423.452 156.507 422.645 158.765C421.45 162.27 421.559 166.165 421.928 169.901C422.539 175.875 423.74 181.75 425.505 187.409" fill="#2F2E41"/>
<path id="Path 138" d="M555.347 85.3514L297.034 154.351C295.765 154.688 294.433 154.429 293.329 153.631C292.226 152.833 291.44 151.561 291.146 150.094L276.353 75.9573C276.062 74.4896 276.285 72.9482 276.975 71.6711C277.665 70.394 278.764 69.4856 280.032 69.145L538.345 0.145471C539.613 -0.191533 540.946 0.0673712 542.049 0.865384C543.153 1.6634 543.938 2.93535 544.233 4.40226L559.026 78.5392C559.317 80.0069 559.093 81.5484 558.404 82.8254C557.714 84.1025 556.614 85.0109 555.347 85.3514Z" fill="white"/>
<path id="Path 138_2" d="M538.473 0.62915C539.591 0.332366 540.769 0.556858 541.757 1.27075C542.747 1.98721 543.47 3.1433 543.742 4.49927V4.50024L558.536 78.637C558.805 79.9942 558.596 81.417 557.964 82.5881C557.332 83.7583 556.337 84.5675 555.217 84.8684L296.906 153.867C295.789 154.164 294.61 153.94 293.623 153.226C292.694 152.554 292 151.496 291.693 150.248L291.636 149.996L276.844 75.8596C276.574 74.5023 276.782 73.0797 277.415 71.9084C278.047 70.7384 279.041 69.9282 280.161 69.6272L538.473 0.628174V0.62915ZM541.302 2.38501C540.524 1.82211 539.57 1.63254 538.658 1.87524L538.657 1.87622L280.344 70.8762C279.436 71.1201 278.672 71.7648 278.2 72.6379C277.729 73.5099 277.58 74.5533 277.776 75.5442V75.5452L292.569 149.682V149.683C292.768 150.673 293.301 151.552 294.076 152.113C294.806 152.64 295.69 152.84 296.55 152.662L296.721 152.621L555.034 83.6223H555.035C555.943 83.3787 556.708 82.7338 557.179 81.8606C557.621 81.0429 557.781 80.0744 557.636 79.1399L557.603 78.9534L542.81 4.81567V4.8147C542.612 3.82407 542.077 2.94524 541.302 2.38501Z" fill="#E6E6E6" stroke="#007AFF"/>
<path id="Path 139" d="M370.106 71.1302C369.679 71.2431 369.276 71.4522 368.919 71.7455C368.562 72.0389 368.258 72.4107 368.026 72.8397C367.793 73.2688 367.636 73.7467 367.563 74.2461C367.49 74.7455 367.502 75.2568 367.6 75.7505C367.698 76.2443 367.879 76.7109 368.132 77.1238C368.386 77.5366 368.707 77.8876 369.078 78.1567C369.449 78.4258 369.862 78.6078 370.294 78.6921C370.726 78.7764 371.167 78.7615 371.594 78.6483L371.605 78.6453L524.707 37.7494C525.567 37.518 526.312 36.9012 526.78 36.0343C527.247 35.1673 527.398 34.1213 527.199 33.1257C527.001 32.1302 526.469 31.2666 525.72 30.7244C524.972 30.1823 524.068 30.0061 523.207 30.2343L370.106 71.1302Z" fill="#E6E6E6"/>
<path id="Path 140" d="M374.605 93.6764C374.178 93.7893 373.775 93.9984 373.418 94.2917C373.061 94.5851 372.757 94.9569 372.525 95.3859C372.292 95.815 372.134 96.2929 372.061 96.7923C371.988 97.2917 372.001 97.803 372.099 98.2967C372.197 98.7905 372.377 99.2571 372.631 99.67C372.885 100.083 373.206 100.434 373.577 100.703C373.948 100.972 374.361 101.154 374.793 101.238C375.224 101.323 375.666 101.308 376.093 101.194L376.104 101.191L441.984 83.5939C442.845 83.3653 443.593 82.7502 444.063 81.8838C444.532 81.0175 444.685 79.9709 444.488 78.9742C444.29 77.9774 443.759 77.1122 443.01 76.5687C442.262 76.0251 441.357 75.8479 440.496 76.0758L440.484 76.0788L374.605 93.6764Z" fill="#E6E6E6"/>
<g id="Group 45">
<path id="Ellipse 18" d="M328.251 121.1C339.296 121.1 348.25 110.741 348.25 97.962C348.25 85.1831 339.296 74.8237 328.251 74.8237C317.207 74.8237 308.253 85.1831 308.253 97.962C308.253 110.741 317.207 121.1 328.251 121.1Z" fill="#6C63FF"/>
<path id="Path 395" d="M327.689 111.31C327.034 111.486 326.348 111.411 325.734 111.096L325.695 111.077L317.648 106.85C317.275 106.654 316.938 106.375 316.658 106.028C316.378 105.682 316.159 105.275 316.015 104.831C315.871 104.386 315.804 103.914 315.817 103.439C315.831 102.965 315.926 102.498 316.096 102.066C316.265 101.634 316.507 101.245 316.807 100.921C317.107 100.598 317.459 100.345 317.843 100.179C318.228 100.013 318.636 99.936 319.046 99.9526C319.456 99.9693 319.859 100.079 320.232 100.276L325.447 103.023L332.762 84.4261C333.104 83.5554 333.732 82.8778 334.506 82.5423C335.28 82.2069 336.138 82.2409 336.891 82.6371L336.847 82.7585L336.893 82.6365C337.645 83.0338 338.23 83.76 338.52 84.6559C338.81 85.5517 338.78 86.544 338.439 87.4149L329.835 109.292C329.636 109.796 329.339 110.24 328.967 110.589C328.595 110.939 328.159 111.185 327.692 111.308L327.689 111.31Z" fill="white"/>
</g>
</g>
<defs>
<clipPath id="clip0_128_2">
<rect width="891" height="493" fill="white"/>
</clipPath>
</defs>
</svg>
